<?xml version="1.0" encoding="UTF-8"?><svg id="b" xmlns="http://www.w3.org/2000/svg" viewBox="0 0 516.00474 167.29586"><defs><style>.d,.e{fill:#fff;}.f{fill:none;stroke:#fff;stroke-miterlimit:10;}.e{fill-rule:evenodd;}</style></defs><path class="e" d="m297.70125,161.12054c0,3.43588,2.29842,6.17532,6.24518,6.17532,3.9698,0,6.26823-2.73944,6.26823-6.17532,0-3.9468-2.71623-6.33809-6.26823-6.33809-3.52879,0-6.24518,2.39129-6.24518,6.33809h0Zm3.25015-.37171c0-1.78738.97528-3.55187,2.99503-3.55187,2.04296,0,3.01808,1.71807,3.01808,3.55187,0,1.99666-.62679,4.13253-3.01808,4.13253-2.36807,0-2.99503-2.15892-2.99503-4.13253h0Z"/><path class="d" d="m315.07174,167.01735h3.11098v-9.68106h2.71618v-2.27517h-2.71618v-1.48599c0-.92851.32507-1.83381,1.3697-1.83381.67326,0,1.06785.25525,1.34648.4178l.25529-2.57689c-.60362-.13946-1.48565-.25542-2.27517-.25542-2.46081,0-3.80729,1.67159-3.80729,4.06288v1.67142h-2.29838v2.27517h2.29838v9.68106h0Z"/><path class="d" d="m341.26135,151.11437c-1.1841-.39476-2.48415-.58036-3.87711-.58036-2.85552,0-5.66478,1.32327-5.66478,4.94492,0,5.36276,7.10417,4.0861,7.10417,7.17369,0,1.46278-1.64838,2.08939-2.87878,2.08939-1.27684,0-2.5538-.39459-3.66808-.99816l-.30189,2.92517c1.60207.3948,2.39129.62683,4.15574.62683,3.27337,0,6.08246-1.34636,6.08246-4.89836,0-5.43275-7.104-4.24861-7.104-7.05787,0-1.7645,1.43939-2.25182,2.55367-2.25182,1.13767,0,2.27533.25512,3.29671.69648l.30189-2.66992h0Z"/><path class="e" d="m345.39793,161.12054c0,3.43588,2.29823,6.17532,6.24501,6.17532,3.96997,0,6.26838-2.73944,6.26838-6.17532,0-3.9468-2.71637-6.33809-6.26838-6.33809-3.52879,0-6.24501,2.39129-6.24501,6.33809h0Zm3.24998-.37171c0-1.78738.97528-3.55187,2.99503-3.55187,2.04296,0,3.01825,1.71807,3.01825,3.55187,0,1.99666-.62698,4.13253-3.01825,4.13253-2.36807,0-2.99503-2.15892-2.99503-4.13253h0Z"/><path class="d" d="m372.61187,155.06113h-3.11098v5.85038c0,1.5323-.48747,3.96985-2.73942,3.96985-1.9967,0-2.01975-1.97332-2.01975-3.43592v-6.38431h-3.11113v7.54523c0,2.6928,1.23055,4.6895,4.06286,4.6895,1.62516,0,2.97164-.74291,3.92371-1.90362h.04628v1.62512h2.94843v-11.95622h0Z"/><path class="d" d="m378.11898,163.41875c0,2.36807,1.34667,3.87711,3.78406,3.87711.92868,0,1.64838-.09291,2.2984-.27851l-.09289-2.46094c-.32494.20899-.85884.32494-1.41615.32494-1.18395,0-1.46244-.95173-1.46244-1.97332v-5.57175h2.76266v-2.27517h-2.76266v-3.38979l-3.11098.9985v2.39129h-2.29838v2.27517h2.29838v6.08246h0Z"/><path class="d" d="m387.40708,167.01735h3.11096v-5.85055c0-1.53225.48749-3.96985,2.73944-3.96985,1.99653,0,2.01975,1.97332,2.01975,3.43609v6.38431h3.11096v-7.54519c0-2.69301-1.23038-4.68971-4.06286-4.68971-1.62499,0-2.97164.74291-3.76084,1.90367h-.04645v-7.08096h-3.11096v17.41219h0Z"/><path class="e" d="m419.65916,160.74883h-4.73595l2.34469-6.6862h.0466l2.34466,6.6862h0Zm-10.44719,6.26852h3.36623l1.41615-3.71456h6.57027l1.39294,3.71456h3.59845l-6.36111-16.20487h-3.66827l-6.31466,16.20487h0Z"/><path class="d" d="m439.63153,155.06113h-3.11081v5.85038c0,1.5323-.48764,3.96985-2.73959,3.96985-1.99668,0-2.01958-1.97332-2.01958-3.43592v-6.38431h-3.11113v7.54523c0,2.6928,1.23038,4.6895,4.06286,4.6895,1.62499,0,2.9715-.74291,3.92322-1.90362h.0466v1.62512h2.94843v-11.95622h0Z"/><path class="d" d="m451.43011,155.22351c-.97497-.20899-1.92686-.44106-3.38947-.44106-2.43772,0-4.68967,1.13771-4.68967,3.71472,0,4.318,5.40936,2.71623,5.40936,5.06091,0,1.16088-1.25362,1.46273-2.04296,1.46273-1.06785,0-2.08942-.30185-3.06453-.78951l-.18577,2.55384c1.1375.30189,2.34483.51071,3.52879.51071,2.5306,0,5.01461-1.11428,5.01461-3.90033,0-4.31813-5.40922-3.11098-5.40922-5.01461,0-1.02142.99818-1.32327,1.83415-1.32327,1.1375,0,1.83398.1856,2.78587.51071l.20884-2.34486h0Z"/><path class="d" d="m456.72629,163.41875c0,2.36807,1.34648,3.87711,3.78422,3.87711.92868,0,1.64821-.09291,2.29823-.27851l-.09289-2.46094c-.32494.20899-.85886.32494-1.41601.32494-1.18395,0-1.46275-.95173-1.46275-1.97332v-5.57175h2.76281v-2.27517h-2.76281v-3.38979l-3.11081.9985v2.39129h-2.2984v2.27517h2.2984v6.08246h0Z"/><path class="d" d="m466.08389,167.01735h3.11113v-4.38778c0-1.71807,0-4.87548,2.5306-4.87548.55731,0,1.11428.09308,1.3926.25546v-3.1342c-.32477-.09291-.64986-.09291-.95156-.09291-1.85736,0-3.13437,1.88062-3.27337,2.99503h-.04643v-2.71635h-2.76298v11.95622h0Z"/><path class="e" d="m476.95084,158.35771c1.04478-.78934,2.3679-1.30005,3.69134-1.30005,1.83398,0,2.69299.65,2.69299,2.57689h-1.71805c-1.30005,0-2.83231.11625-4.01609.69661-1.18412.58036-2.04347,1.62499-2.04347,3.41271,0,2.27517,2.06652,3.552,4.17915,3.552,1.41632,0,2.97164-.74291,3.69134-2.06618h.04643c.02339.37154.02339,1.16088.13934,1.78767h2.73942c-.0695-.92868-.11593-1.76446-.13932-2.66992-.02339-.88208-.04645-1.78755-.04645-2.99486v-1.53213c0-3.52908-1.50887-5.03799-5.15378-5.03799-1.32344,0-2.94858.34832-4.15574.90547l.09289,2.66979h0Zm1.57871,5.20038c0-1.83398,2.06618-2.06605,3.45912-2.06605h1.34651c0,.92839-.13934,1.78755-.64988,2.46081-.48779.65-1.23055,1.06798-2.18245,1.06798-1.11428,0-1.97329-.44119-1.97329-1.46273h0Z"/><polygon class="d" points="490.5824 167.01735 493.6937 167.01735 493.6937 149.60516 490.5824 149.60516 490.5824 167.01735 490.5824 167.01735"/><path class="e" d="m498.31387,167.01735h3.11098v-11.95622h-3.11098v11.95622h0Zm0-14.13853h3.11098v-2.97164h-3.11098v2.97164h0Z"/><path class="e" d="m506.60201,158.35771c1.0451-.78934,2.36822-1.30005,3.69166-1.30005,1.83398,0,2.69299.65,2.69299,2.57689h-1.71805c-1.30005,0-2.83231.11625-4.01643.69661-1.18378.58036-2.04279,1.62499-2.04279,3.41271,0,2.27517,2.06618,3.552,4.17881,3.552,1.41632,0,2.97164-.74291,3.69134-2.06618h.04643c.02307.37154.02307,1.16088.13934,1.78767h2.73942c-.06982-.92868-.11593-1.76446-.13932-2.66992-.02339-.88208-.04645-1.78755-.04645-2.99486v-1.53213c0-3.52908-1.50887-5.03799-5.15409-5.03799-1.3231,0-2.94826.34832-4.15543.90547l.09257,2.66979h0Zm1.57902,5.20038c0-1.83398,2.06618-2.06605,3.45912-2.06605h1.34651c0,.92839-.13934,1.78755-.6502,2.46081-.48747.65-1.23023,1.06798-2.18213,1.06798-1.11428,0-1.97329-.44119-1.97329-1.46273h0Z"/><path class="d" d="m347.46916,127.98018c-1.39311-.41797-2.87876-.67309-4.75934-.67309-5.50227,0-8.89189,3.11081-8.89189,8.65935,0,5.47888,3.64491,8.10237,8.89189,8.10237,1.74124,0,3.52879-.37137,5.24681-.83565v-8.72933h-6.54703v2.55384h3.43607v4.2251c-.55699.13946-1.25377.23237-2.13585.23237-3.45914,0-5.50227-2.48415-5.50227-5.78073,0-3.31997,2.08939-5.87364,5.87364-5.87364,1.30005,0,2.92536.27851,4.17881.85886l.20916-2.73944h0Z"/><path class="e" d="m351.60818,137.89344c0,3.43592,2.2984,6.17536,6.24516,6.17536,3.96983,0,6.26823-2.73944,6.26823-6.17536,0-3.94693-2.71621-6.33804-6.26823-6.33804-3.52893,0-6.24516,2.39112-6.24516,6.33804h0Zm3.25013-.3715c0-1.78755.97513-3.55204,2.99503-3.55204,2.04282,0,3.01793,1.7179,3.01793,3.55204,0,1.99649-.62681,4.13236-3.01793,4.13236-2.36805,0-2.99503-2.15892-2.99503-4.13236h0Z"/><polygon class="d" points="370.9518 143.7903 374.45754 143.7903 378.86872 131.83408 375.75759 131.83408 372.87883 140.53985 372.83238 140.53985 369.8609 131.83408 366.51772 131.83408 370.9518 143.7903 370.9518 143.7903"/><path class="e" d="m384.23554,136.6397c.13932-1.60178,1.0214-2.80896,2.76266-2.80896s2.43789,1.29993,2.53043,2.80896h-5.29309Zm7.38266,3.94676c-1.16071.65005-2.46094,1.20719-3.96997,1.20719-1.92686,0-3.27337-1.09124-3.41268-3.01795h8.26474c0-4.17896-1.25345-7.22029-5.68785-7.22029-3.71456,0-5.54853,2.85556-5.54853,6.31483,0,3.92341,2.2984,6.19858,6.24516,6.19858,1.67159,0,2.97147-.32494,4.10914-.9519v-2.53046h0Z"/><path class="d" d="m396.28873,143.7903h3.11096v-4.38778c0-1.71807,0-4.87548,2.53043-4.87548.55731,0,1.11445.09291,1.39296.25546v-3.1342c-.32511-.09291-.65005-.09291-.95175-.09291-1.85736,0-3.1342,1.88058-3.27335,2.9949h-.04662v-2.71623h-2.76264v11.95622h0Z"/><path class="d" d="m406.94653,143.7903h3.11081v-5.85038c0-1.5323.48764-3.97002,2.73959-3.97002,1.99668,0,2.01975,1.97332,2.01975,3.43592v6.38448h3.11096v-7.54536c0-2.69301-1.23038-4.68954-4.06286-4.68954-1.62499,0-2.94843.53409-3.92339,1.90367h-.0466v-1.62499h-2.94826v11.95622h0Z"/><path class="d" d="m422.36661,143.7903h3.11113v-5.80412c0-1.55547.25544-4.01628,2.32162-4.01628,1.78769,0,1.78769,1.57873,1.78769,2.69301v7.12739h3.11081v-5.80412c0-1.55547.25527-4.01628,2.32162-4.01628,1.78752,0,1.78752,1.57873,1.78752,2.69301v7.12739h3.11113v-7.54536c0-2.66963-.8358-4.68954-3.7842-4.68954-1.46278,0-3.01825.67326-3.73794,2.11282-.67309-1.48599-1.85719-2.11282-3.52864-2.11282-1.16088,0-2.57704.48749-3.55217,1.95027h-.04643v-1.67159h-2.90214v11.95622h0Z"/><path class="e" d="m446.54344,136.6397c.13917-1.60178,1.02125-2.80896,2.76251-2.80896s2.43772,1.29993,2.5306,2.80896h-5.29311Zm7.38251,3.94676c-1.16088.65005-2.46094,1.20719-3.96997,1.20719-1.92686,0-3.27337-1.09124-3.41254-3.01795h8.26476c0-4.17896-1.25362-7.22029-5.68802-7.22029-3.71456,0-5.54853,2.85556-5.54853,6.31483,0,3.92341,2.29838,6.19858,6.24499,6.19858,1.67159,0,2.97164-.32494,4.10931-.9519v-2.53046h0Z"/><path class="d" d="m458.52696,143.7903h3.11081v-5.85038c0-1.5323.48749-3.97002,2.73944-3.97002,1.99668,0,2.01975,1.97332,2.01975,3.43592v6.38448h3.11113v-7.54536c0-2.69301-1.23055-4.68954-4.06288-4.68954-1.62531,0-2.94858.53409-3.92371,1.90367h-.04628v-1.62499h-2.94826v11.95622h0Z"/><path class="d" d="m475.01521,140.19187c0,2.3679,1.34651,3.87694,3.78422,3.87694.92819,0,1.64821-.09291,2.29806-.27851l-.09289-2.46094c-.32509.20882-.85901.32494-1.41598.32494-1.18412,0-1.46278-.9519-1.46278-1.97332v-5.57192h2.76283v-2.275h-2.76283v-3.38962l-3.11064.99833v2.39129h-2.29872v2.275h2.29872v6.0828h0Z"/><path class="e" d="m432.96612,44.49145c5.03036,9.69907,3.10107,23.22265-4.13481,31.2854-7.52849,8.54483-18.31296,11.90425-29.49365,9.23382-9.97498-1.9811-19.10573-11.74901-21.08682-21.56924-2.79091-11.99018,2.04996-23.4294,11.92151-30.38937,8.28649-6.04689,21.6727-6.59803,30.52754-1.37833,5.06495,2.65305,9.85433,7.73536,12.26624,12.81771h0Zm.75786.48212c4.92707,10.30235,2.51566,23.89494-5.37494,32.0437-7.58029,7.9934-18.46805,11.14629-29.35579,8.40718-10.62989-2.30866-20.10505-12.85196-21.56926-23.56742-1.98127-11.6633,2.85975-22.18973,12.19722-29.01184,8.54485-6.46017,22.74038-6.90821,31.83671-1.30914,5.16839,2.87696,9.95777,8.16585,12.26607,13.43752h0Z"/><path class="d" d="m374.80536,68.05884c.7408,1.32652,1.6193,2.60125,2.2052,3.99678-.5172.22396-.5859-.56835-1.03374-.68916l-.68916.13786-6.40869,3.58338c-.75801.55114-1.05113,1.29193-1.10276,2.13617.06933,1.30948.77539,2.67043,2.06715,3.16993,2.86026.24129,5.03101-2.03307,7.51161-3.16993.58573-.37869.98194-.98196,1.03358-1.65404l-.13771-.96475h.27557l1.9298,3.51483-.13803.13786c-.62032-.63753-1.42998-1.03389-2.34306-.75818l-6.27083,3.30779c-1.15439.20704-2.49813.06884-3.30777-.96471-1.13686-1.39554-1.94684-3.03207-1.58488-4.96171.15524-.82702.96456-1.44717,1.65389-1.86075l6.06394-3.3763c.63753-.44821-.05163-1.10278.06884-1.58507h.20704Z"/><path class="d" d="m437.85862,69.09226c.03474.62049-.46474,1.51602.48229,1.72289l8.20059,3.72124c.65491,0,.65491-1.10261,1.24047-.82685-.63753,1.37816-1.18884,2.85975-1.92946,4.13464h-.20655c0-.48246.30967-.99901,0-1.44734l-8.54519-3.99661c-.65489-.1036-.77539.80947-1.30946.8957.48261-1.46404,1.15456-2.84254,1.86077-4.20366h.20655Z"/><path class="d" d="m430.8988,79.77347c.10312.51701-.75818.87865-.34458,1.51618l6.75344,6.27081c.86113.39641,1.41241-.6544,1.86043-1.17145,1.06802-1.44717.68916-3.84184-.20687-5.23721.05197-.12052.18983-.05163.27574-.06872l2.4119,3.30745c-1.96388,2.11912-3.89352,4.18632-5.99541,6.13329-.0687.01708-.10297-.03459-.13771-.06901.06901-.48242.62032-.86127.41343-1.37833l-6.82179-6.4085c-.60326-.43066-1.15471.94716-1.44749.2067l3.0322-3.10121h.20672Z"/><path class="e" d="m386.45096,83.28813c.15541.37881.31048.75801.68933,1.03355l.62015-.13786v.41345c-.70637.96471-1.34374,1.96405-2.13619,2.89451h-.2067c.39621-1.48176,1.39537-3.56629-.06887-4.96183-.41343-.51671-.99915-.63736-1.58503-.75801-.70623.0518-1.37833.58585-1.65389,1.24043-.34441,2.89451,3.704,5.34052.9649,8.13159-.72361.68899-1.60243,1.01656-2.61846.96475-1.79192-.13803-3.22188-1.67096-4.0658-3.16976-.27574-.3446-.60311-.20687-.96507-.13786v-.3446c.98194-1.11978,2.01569-2.29157,2.96321-3.3768h.20687c-.68899,1.53327-1.89502,3.35976-.82685,5.09956.56835.62015,1.2403,1.29193,2.13633,1.30931.8613.05163,1.58471-.53426,1.99831-1.24047.79228-3.08371-4.30694-5.99543-.4136-8.61406,1.77454-.98192,3.99695-.13786,4.96135,1.65408h0Z"/><path class="d" d="m392.72242,87.07834c2.49766.86115,4.92692,1.91208,7.5798,2.41175-.10327,1.34357-.31014,2.65305-.61998,3.92794-.34458-.37903-.17245-1.10261-.4136-1.58507-.29261-1.1542-1.17143-2.48073-2.41173-2.82533l-3.30779,9.16502c.10329.67195.93014.6377,1.2403,1.10274l-.13786.13786c-1.60192-.56864-3.25616-1.05093-4.82397-1.72289v-.13769c.48261-.10344,1.05127.20653,1.5852,0,1.36095-2.94585,2.29126-6.0641,3.44548-9.09618.05165-.22408-.2067-.27555-.34456-.34456-1.86045-.18966-3.29058.67178-4.54809,1.92946-.30982-.0518,0-.32722,0-.48246l1.92946-3.0322.82734.5516h0Z"/><path class="e" d="m370.53286,60.06514c-1.03374.82702-2.30847,1.41258-3.51466,1.99814l-.27525-2.96289,3.78991.96475h0Zm-7.92472-3.03207c2.5324,1.63654,5.65085,1.84324,8.47586,2.75631.86144-1.01634,1.68846.55131,2.68762.41362l.13788.13769c-3.35959,1.878-6.75344,3.94532-10.13007,5.92642-.58573.24129-.18934,1.08519-.68883,1.17158-.24131-1.41304-.37917-2.96319-.48246-4.34151-.01736-.12048.18951-.0518.27542-.06901.20704.3446.08622,1.03406.68916,1.03406,1.03358-.46538,2.11895-.94801,2.96352-1.72323l-.34492-3.37646c-.94767-.29293-2.10174-.91308-3.10073-.27572-.60342.27572-.2241,1.13699-.82719,1.2403-.1723-1.27472-.41345-2.60141-.41345-3.85876.49967.03442.43098.67178.75818.96471h0Z"/><path class="e" d="m409.88099,90.73039c.94735.98192.84408,2.56712.34443,3.72119-.68885.91325-1.79177.80964-2.82535.89591-.15507-1.6367-.29293-3.3593-.13786-5.03055.91325.03476,1.91274-.13769,2.61877.41345h0Zm2.34289.27589c.49967.63719.77524,1.42979.55131,2.27385-.46523,1.32669-1.87783,1.84341-3.03205,2.20522.87865.31014,2.01552.91308,2.4119,1.92959.74065,1.08523,1.13718,3.08354,2.89419,2.96289v.20687c-1.03391.05163-2.0329.18966-3.10107.13786-1.15424-1.60207-1.68817-3.65218-3.44565-4.8238-.30984-.12065-.68868-.0518-1.03326-.06884l-.13803.20641.20672,4.0658c.30982.46538.84423.37932,1.30914.48259.1036.27559-.20655.37903-.41345.34443l-4.13447.13803-.13803-.13803c.29327-.48212,1.10259-.13769,1.30948-.82702l-.34475-9.16485c-.22393-.67212-1.01622-.39636-1.37816-.75801l.20687-.13786c2.75631.12065,6.11574-1.01672,8.26928.96488h0Z"/><path class="e" d="m424.28324,92.45311l-2.6873,1.30931c-.32754-1.22292-.22425-2.61846-.34475-3.9279,1.03374.79243,2.10174,1.72289,3.03205,2.61858h0Zm6.27098,1.86079v.13769c-1.32667.62015-2.63584,1.29227-3.99678,1.79177-.12065-.48246,1.05064-.63736.62-1.30931l-2.41175-2.136c-1.13701.46487-2.32599.96437-3.30777,1.65354.18932,1.08557.03457,2.49798,1.30929,2.96336h.9649v.20641c-1.18867.49997-2.39469,1.22326-3.58351,1.51635.98194-.77539,1.10259-2.0847,1.10259-3.23894l-.41343-6.33982c-1.32638-.41345-.0518-1.7916-.55131-2.75648l.13786-.13786,9.09633,7.6493h1.03358Z"/><path class="e" d="m446.1279,63.57963c-1.25734-.36198-2.34272-1.15441-3.51417-1.72259,1.15424-.51718,2.48077-.93046,3.79008-1.24076l-.27591,2.96336h0Zm5.16872-7.3044c-.01755,1.37799-.22425,2.84207-.34475,4.27216l-.20687.06889c-.25819-.34443-.01689-.91312-.48229-1.17179-1.20588.1382-2.39452.48263-3.37678,1.03389l-.34443,3.3768c.87868.53409,1.77454,1.22326,2.89436.96475.63719-.13773.60309-.98179,1.17126-1.10261-.13754,1.32669-.06868,2.72206-.48227,3.92794-.20672-.87836-.84408-1.77439-1.72291-2.27407l-6.40852-3.37676c-1.05079.94784-1.61964-.93016-2.61863-.96425v-.20721c3.79023-1.13686,7.56308-2.36042,11.30134-3.65222.4136-.2067.15524-.82685.62049-.89553h0Z"/><path class="d" d="m411.81045,12.51672c-.15507.43049-.7926.3098-1.10291.68883-.91293.84423-.63721,2.17059-.68885,3.37697-.20672,2.27385,1.05113,6.02934-1.99862,7.02881-1.688.51654-3.73811.31001-5.16807-.62032-.8444-.67212-1.11997-1.55061-1.17145-2.54974l-.2067-7.02886c-.25853-.6377-1.11965-.15507-1.30948-.68916,1.48176-.2585,3.20435-.08606,4.68595-.13786.06918.60311-.72359.2585-1.03358.55131l-.27557.4134.20655,7.71832c.12082.7405.75818,1.46392,1.44734,1.7916,1.01636.36164,2.37746.53359,3.30745-.13769.8613-.67229,1.22341-1.65392,1.17177-2.75665-.31048-2.18814.41326-4.80626-.62032-6.68459-.36179-.51654-1.06817-.53388-1.37799-.8957l.48195-.13769c1.22341.22374,2.42943-.15511,3.65252.06901h0Z"/><path class="d" d="m426.9017,17.06464h.48278c-.17247,1.34357-.44787,2.65318-.82704,3.9279-.17245-.58585-.2585-1.34357-.41343-1.99848-.34475-.99896-1.05096-2.15338-2.13633-2.54974-1.37816,2.98057-2.51519,6.04706-3.72122,9.09647.13786.63736.82702.75784,1.24013,1.17129-.06868.22408-.4477.15524-.61981.06901-1.39539-.67195-2.89419-1.1372-4.27267-1.86062.22391-.30984.82685,0,1.24062,0,.68899.08606.72342-.70637.96473-1.10261.9475-2.75631,2.22207-5.37477,3.16974-8.13126-1.8606-.75818-3.60072.43066-5.03053,1.51589.56869-1.18884,1.27472-2.30878,2.13619-3.3768l.89603.62032,6.89081,2.61863h0Z"/><path class="d" d="m437.37633,24.57575c-.01721.08652.05165.22408-.06868.27589-.53424-.01721-.82704-.80964-1.44734-.41362l-2.82533,2.89438c.93029,1.25764,2.13617,2.0847,3.16991,3.23873h.20687c.77522-1.39537,4.01399-2.46351,2.34289-4.20332.15492-.32769.37886.01721.55131.06868l2.89434,2.96306-.13786.2067c-.51688-.03425-.84425-.79243-1.44734-.41311l-6.61507,6.75327c-.13803.53393.49933.75784.48195,1.2403h-.34441c-1.01653-1.05093-2.17078-2.05011-3.03205-3.17006.55128-.2928,1.22309,1.03372,1.79175.06914l3.03188-3.0322c-.91293-1.17162-2.11912-2.20518-3.17008-3.30779h-.20639l-3.30762,3.3768c-.36179.55114.94752,1.10244.20672,1.37799-.99932-.9993-2.10191-2.10174-3.10107-3.10104v-.20641c.53393-.06901,1.05079.92999,1.65373.27525l6.47753-6.54606c.34507-.65474-.96473-1.15441-.20672-1.44734l3.10107,3.10075h0Z"/><path class="e" d="m378.87098,26.71208v.27572c-1.46438-.55131-3.39399-1.61962-4.89248-.41345-.63753.48246-.91327,1.10261-1.03391,1.79194.06901.6544.55145,1.18867,1.10259,1.58469,2.7737.48229,4.9789-2.65318,7.78684-1.03355.87868.61981,1.25785,1.58503,1.44734,2.54978.13771,1.65387-.89603,2.92843-2.20552,3.85871-.53359.27559-1.15405.51705-1.5157,1.03377-.0518.22391.08608.36177.13771.55131l-.13771.13786c-1.25766-.96475-2.46354-2.17076-3.58334-3.30779l.13786-.13786c1.39554.84423,2.91141,1.80911,4.68561,1.30931.93065-.44787,1.77488-1.41245,1.79209-2.48111-.05197-.77488-.55145-1.48142-1.24047-1.86028-2.99795-.70637-7.08079,4.28975-8.88975-.55143-.31033-1.39524.10344-2.8252,1.24079-3.78974.63719-.72375,2.3083-.60328,1.99831-1.92963h.20639l2.96336,2.41175h0Z"/><path class="e" d="m393.61799,21.33714c.49948,1.2921.60309,3.29058-.34458,4.41036-.72344.77522-1.61947,1.11982-2.61863,1.2403-2.91141-.17211-4.25514-3.41106-4.96166-5.71937-.27557-1.29223-.20655-2.77382.75784-3.72136.93063-.86127,2.27436-1.30948,3.51466-.82702,1.87783.77522,2.98057,2.86009,3.65237,4.6171h0Zm1.51585-2.27419c.87868,1.60224.74097,3.89347-.13754,5.44408-1.01668,1.72293-2.84286,2.96323-4.82395,3.10126-2.04996.05146-3.85909-.6377-5.16824-2.27419-1.05096-1.44751-1.46455-3.41139-.96473-5.23742.65442-2.136,2.79093-3.99695,5.03036-4.20349,2.53257-.18966,4.90988.91325,6.0641,3.16976h0Z"/><path class="d" d="m356.40991,37.7924c7.7469-20.32378,27.40652-34.76205,50.4512-34.76205,23.05705,0,42.73794,14.45403,50.47558,34.79583l-5.46571,2.0293c-6.90576-18.11159-24.47304-30.95463-45.00987-30.95463-20.5274,0-38.05197,12.85374-44.96422,30.95188l-5.48698-2.06034h0Z"/><path class="d" d="m359.52965,65.68184c4.08058,22.43788,23.716,39.45015,47.33146,39.45015s43.26292-17.01227,47.34332-39.45015l5.77004,1.08849c-4.59095,25.16023-26.62772,44.23251-53.11336,44.23251-26.48238,0-48.5107-19.06742-53.10571-44.22228l5.77424-1.09872h0Z"/><path class="e" d="m404.09148,70.87346c.00034-.00292.00066.00389.00082.01057-.74065,1.55061-2.67026,1.34386-4.20351,1.2403.08168-.4732.76598-.89997,1.23347-1.25087h-.94832c-.87379.82656-1.85508,1.41778-3.24818.97545-1.03389.91308-2.92876-.1549-3.72122,1.17129-.1549.44817-.0518.96505.27557,1.30948.62032.37898,1.65373.27538,2.2052.2067.37883.22408.74111.43066,1.24045.34456.43066-.67208.89572-.01721,1.37816.06901.49982.01708.9131-.60323,1.37833-.27589-.46523.75818-.99947,1.46472-1.17177,2.34321-.05163.62002.9649.4477.68965,1.17145.15475.53409.72327.3446,1.03309.62015.03459.89587,1.03391.65474,1.58505.89587.17245,1.55048,1.87781-.20687,2.20518,1.24047.36164,0,.63753-.24129.96458-.34456.4136.05146.72359.51684.96505.82685.68899.55131.94752-.36181,1.447-.68933l1.24047.48246.82685-.96475c.96507.70637,1.30931-.70621,2.2052-.41324.62015.06868.55128-.63753.82719-.96492,1.06783.15494.91276-1.32652,1.92929-1.30931.06868-1.20583-1.01653-1.91238-1.30914-2.96336.41311-.24096.74046.12099,1.03309.3449.63785.20674.96505-.32735,1.44766-.48259.87851,1.36095,1.75684-.51671,2.89402-.13769.51703-.17232.99915-.70637.89589-1.30948-.12082-.27542-.2928-.63736-.61983-.68899-1.70585.20687-2.86026-.93063-4.61774-.62015l-.87899-.83759h-1.22066c.38243.34443.74877.71352,1.06656,1.11314-1.4303-.12048-3.41139.70637-4.27284-.96471l.04935-.14843h-.85527c-.35611.75006-.83108,1.44654-1.53697,2.00918-.7926-.48178-1.29893-1.20863-1.6617-2.01095l-.75103.00178h0Zm2.75746,2.69817c.58556,1.41275.86113,3.0319.82704,4.6171-2.03307-.86144-.77539-3.13547-1.03391-4.6171h.20687Zm-.89587,0c.01704,1.48164.7408,3.58338-.89603,4.54826h-.20672c-.08606-1.70568.60294-3.15285,1.10276-4.54826h0Zm1.51618-.34456c.58556,1.46421,1.73963,2.70468,2.06732,4.2725.0687.24129-.22408.53393-.41343.48229-.4654-1.63637-1.51618-3.0319-1.79192-4.75479h.13803Zm-11.02594-.06901c.01704.32752-.34441.60311-.62032.68899-.60292.03459-1.55029.2931-1.92944-.27542.22391-1.01651,1.60224-.36194,2.4119-.55143l.13786.13786h0Zm7.37342,4.89282c-.20655.18932-.46508-.08639-.55131-.27572.37917-1.73997,1.37816-3.22156,2.06732-4.82351-.13769,1.75701-1.01668,3.39384-1.51602,5.09922h0Zm1.03358-5.09922c-.48229,1.56752-1.84307,2.79061-2.54944,4.2722-.12082.0518-.18983-.06884-.27557-.13769.77507-1.44734,1.68832-2.96323,2.82501-4.13451h0Zm-3.72105,3.5142h-.13803c.43081-1.41258,1.99846-2.41192,3.0322-3.5142-.39638,1.32623-2.25681,2.15325-2.89417,3.5142h0Zm.27557-3.44565c-.39638.22408-.79211,1.2406-1.51604.75801-.05163-.34443.31016-.58556.55131-.75801.27557-.10327.68916-.10327.96473,0h0Zm-2.82518,0c.18934.29293,0,.72375-.34458.75801-.49965-.05146-.82719.12099-1.24062-.13769.06884-.241.20672-.44787.41343-.62032.34475-.10327.82719-.10327,1.17177,0h0Zm20.12209.13786c-.20704,1.13703-1.65421.41357-2.48109.62015.05163-.46508.56852-.67161.89589-.89557.53424.0861,1.29193-.22425,1.5852.27542h0Zm-2.89451-.13786c.01738.32718-.34441.60311-.62015.68933-.32737.13752-.79243.06868-.96473-.20674-.08606-.37932.22393-.51701.48244-.62015.36179.05151.82704-.12065,1.10244.13756h0Zm-2.61846.13786c-.06884.22408-.1036.46525-.34475.62015-.65472.2585-1.10259-.41328-1.58486-.75801.49948-.15494,1.51602-.32722,1.92961.13786h0Zm-2.20518,3.85922c-.03459.17198.08622.39624-.13788.48229-.82702-1.5852-2.6186-2.96319-2.89434-4.75479l3.03222,4.2725h0Zm1.58503-1.51618v.20674c-1.25768-.96492-2.32585-2.27407-3.37663-3.44565,1.25751.89587,2.27388,2.08453,3.37663,3.2389h0Zm-4.13498-3.2389c1.41292,1.37833,2.4637,2.72219,3.65237,4.20366.01704.22391,0,.43062-.20672.55143-1.18881-1.65387-2.6186-3.03203-3.65218-4.75509h.20653Zm-7.78684,3.10121h-.2067c.1036-.96471,1.32652-1.43013,1.99814-2.13633l1.3785-.96488c-.87882,1.17158-2.17061,1.92959-3.16993,3.10121h0Z"/><path class="e" d="m409.15302,59.8079c.10327,1.41241.47612,2.80473,1.0724,3.97843l-.27542,1.72276c-.91325-.1379-.25867.96471-.55145,1.37816-.18966.80964-.67195,1.4988-1.10276,2.20501l.34475.20687c-.1679.53181-.35579,1.06671-.59937,1.57759l.85527-.00326.5021-1.50532c.49933.58556,1.2403.55131,1.86062.82702.26548.2163.53359.44123.79421.67682l1.22066.00148-2.01486-1.91889c-1.48161-1.01639-.9131-2.79091-.55162-4.13464.03474-.20658.25867-.55131.55162-.41345.67193.93029.29278,2.41175,1.37816,3.23878.3272.18966.68899.25834.96456-.06901.44819-.41311.93031.12065,1.17192.48259.36148.05151.58558-.24129.82687-.48259.51671-.43083.96473.18966,1.44685.27572.2585-.2067.46506-.55097.68916-.82668.41374-.24146.68916.22374,1.03406.34439.63687.18966.6544-.77522,1.10227-1.10257.49948-.01704.8613.31014,1.37816.27572l.55097-.96488c.55162-.63753,1.24079.05163,1.92995-.06884l.89572-1.30914,1.44734-.06901c.37883-.41362.36162-.99917.34441-1.58507.72359-.46491,1.7398-.22408,2.54976-.48259.05132-.61981-.31014-1.27455-.55145-1.86028.66643-.33306,1.54168-.18349,2.26836-.3907l-21.53321-.0044h0Zm-8.97908,11.06556c.72538-.67682,1.37655-1.5175,2.12693-2.05675,1.17129-1.51572.17213-3.25582-.20687-4.82351-.27574-.01721-.34443.2928-.41345.48229-.08622,1.11948.01738,2.32553-.89587,3.10075-.82702-.29297-1.55046-.12048-2.20503.41374-.56883-.13803-.82702-1.18896-1.51635-.82685-.36179.27555-.65457.91261-1.17143.61998-.25836-.27542-.39607-.65474-.75803-.82685-.48227,0-1.05079.61998-1.447,0-.22393-.32739-.48229-.96505-1.03358-.62015-.31016.17228-.65474.24112-1.03391.2067l-.68883-1.17162c-.62032-.24129-1.58505.55131-1.72291-.41357-.05163-.2928-.10344-.79226-.55114-.68899-.75801-.01721-1.60241.36177-2.27421-.06868.05165-.63753.43066-1.24064.48229-1.79177-.70637-.17245-1.82617.12048-2.34306-.55114.08622-.60311.25853-1.17175.48261-1.72276-.6458-.14238-1.3598-.14873-2.00366-.31762l20.97721-.00875c-.43586,1.98875-1.8145,3.76344-.71223,5.77004l.13771-.13786c.86144-.01738.06901,1.05093.4136,1.5852.29293.68883.80964,1.37782.89572,2.06698h-.48212c.16547.58996.35173,1.20393.61218,1.77943l-.75103.00178c-.11187-2.54166-1.82795.19943-2.8932-.05831-.02453.0192-.04986.03852-.07601.05831h-.94832Z"/><path class="e" d="m396.70573,48.72238c-.14306.94103-.19243,1.8739.01332,2.86639-.46525.01755-.80998-.25817-1.17162-.48208-.17228-.24117-.24098-.51688-.20687-.82706.34475-.1549.65474.5859,1.03391.13773-.08639-.67166-.94752-.89574-1.17162-1.51572.49967-.34473.98211.72342,1.30948,0-.02193-.06187-.0544-.11951-.09434-.17439l-13.40016-.00486c-.59839.0872-1.08474.48276-1.59706.79924.08589.82702,1.11963,1.27489,1.51618,2.06715-.67212.43066-1.41292,1.01672-1.8611,1.7231.48261.67178,1.27521.93012,1.65423,1.58486-.4995.67195-1.48176,1.08523-1.51635,1.99848.48261.55131,1.27504.58573,1.86094,1.0336-.29312.53376-.86146,1.01651-.68933,1.65387.19406.10344.40076.17765.61512.23398l20.97721-.00875c.09532-.42592.14566-.86956.11464-1.32784.18966-.44817-.4477-1.24043.4136-1.17158,1.20571.03459,2.25666-.60277,2.89417-1.65375.36179-.55131.08608-1.48159.75786-1.79156.94752.43079,1.29259,1.48125,1.30946,2.48073-.30267,1.1021-.39896,2.28819-.31437,3.45427l21.53321.00973c.02516-.00275.05001-.0104.07485-.01852.24083-.86144-.65472-1.51602-.82702-2.20501l2.13633-1.0336c-.03459-.77505-1.01668-1.03389-1.30931-1.65404.63721-.46521,1.34374-.74063,1.99799-1.17158l.06918-.34443c-.65474-.70621-1.49883-1.20588-2.34289-1.5849l-.06884-.20704,1.51585-1.37799v-.34439c-.60294-.60311-1.51585-.49967-2.20535-.89608.0432-.09041.09826-.17325.16141-.25068l-11.9923.00275c-.26337.20459-.54999.40013-.7796.59254-.06075-.20556-.03768-.40254.03914-.59237l-1.76042-.00017c-.87087,2.60788-.54968,5.69485-2.89548,7.69036-.60326.46525-1.34407-.01721-2.06732.13803-.39638-.48242-.36213-1.15454-.55147-1.72289-.9475-2.63584-3.79023-3.325-5.99524-4.20349-.48261-.0518-1.24062-.22379-1.58488.13769.75769.37903,1.55012.80981,2.06715,1.58486l-.13769.13803c-.63721-.22408-1.37833-.41374-2.06717-.3449.41311,1.15475,1.79144,1.29244,2.48043,2.20535.10344.82702.20672,1.8262-.62015,2.34291-.5685.37898-.82685-.37903-1.30929-.41311-.48229-.05197-1.08523.43049-1.44702-.13786-.17245-1.4303-2.17076-2.10208-1.72274-3.79042-.58036-1.149-1.02237-2.34646-1.25865-3.63239l-1.58.00782h0Zm9.66059,4.03818c.01721.13786-.01704.36177-.20655.27572h-.2067v-.41357c.13769.0518.41326-.12052.41326.13786h0Zm9.16551.13786c.37867-.03459.37867-.51688.8267-.41345.34458.72329-1.13718.99917-.48278,1.51572.37949-.13752.82736-.56818,1.24079-.20653-.01721.56864-.75801.56864-.89589,1.03372.60326.03442,1.1716.25834,1.51604.75801.10344.27559-.20672.37903-.41345.3446-.51669.10327-1.05096-.20658-1.44749,0,.31048.53405,1.12014.62028,1.03406,1.37799-.70654.27589-1.15407-.46491-1.79175-.55114-.17245.49967.65457.75801.55131,1.30914-.63721.20687-1.10261-.43049-1.58505-.68899-.12048.32718.1036.67195.27574.96488-.49967.24112-.99932-.12048-1.24013-.55147-.68965-.98209.6026-1.65354.89538-2.48073.91342-.89574.89603-2.18784,1.44751-3.23894.12048.31031-.25853.5859.06901.82719h0Zm-15.71205,2.136c.68933.44821.87868,1.22326,1.10276,1.92963.05163.63736-.29295,1.18884-.82702,1.51602-.29295.01738-.49967-.18949-.48212-.48242-.12082-.22379.25802-.41328-.06901-.55114-.36196.24146-.68916.7408-1.1716.48229-.17213-.48229.27572-.87853.4136-1.30948-.55131-.06855-.94752.84423-1.65406.41374-.15492-.58573.34492-.8957.62032-1.30914-.55145-.30997-.96473.30984-1.51618,0,.03442-.4998.87865-.67195,1.30946-1.03389-.379-.2585-.98209-.60294-1.03358-1.17145.63753-.34456,1.068.65457,1.65373.20658.01704-.51688-.60294-.96458-.27557-1.44704.24098.10344.41343.36164.61998.55147.43098-.12065.05197-.55147.06918-.82719.62047.86144.10312,2.32583,1.24013,3.03203h0Zm5.23725-2.68747c-.15509.34494.08637.98213-.48212,1.03377-.48261-.03425-.8613-.2928-1.24047-.55114.46523-.22408,1.15391.46525,1.58505-.06901.08606-.70654-.62032-1.0854-1.03374-1.58486.68916-.03459,1.20586.48225,1.17129,1.17124h0Zm13.23112-1.79156c.03442.65474-.72359.34473-1.03374.62032-.18949-.39641.46523-.62032.75818-.75835.10295,0,.29278-.01675.27557.13803h0Zm.4136-1.03377c-.31048.48246-.94784.46525-1.44734.62015.17213-.46521.87851-.9475,1.44734-1.10244.30999.12069,0,.32739,0,.48229h0Z"/><path class="e" d="m383.01783,48.72238c.08525-.02047.17308-.02778.26354-.02778l.20672-.20636c-.36196-.60311-1.0167-1.06853-1.24047-1.72276.91327-.37915,2.08453-.08639,2.96304-.55164-.25819-.80947-1.25751-1.30914-1.447-2.136.93014-.53409,1.96372.12048,2.89434,0-.7408-.72359-1.44734-1.58503-1.44734-2.68747.60311-.41374,1.15424.1549,1.72308.27559.86113.55126,1.75716,1.03355,2.68747,1.447l.13754-.13773c-.75803-1.24043-2.44618-2.1878-2.27404-3.72119,1.86077.3446,3.27335,1.68834,4.89282,2.82516.05163-.58573-.58556-1.06781-.75818-1.65387-.4477-1.1885-1.32635-2.20501-1.17129-3.65218.75818-.01725,1.39539.86144,1.92946,1.44717l1.58505,2.20501c.48244-.77522-.27574-1.37816-.41345-2.06732.01706-1.22309-.6721-2.56665.06887-3.65205,1.1198.25838,1.29193,1.6367,1.72257,2.54961.24146.86144.32737,1.77456.75835,2.54944.01704-1.688.41343-3.37646.06884-5.03021.13771-.70637.55131-1.46438,1.17145-1.79173l.27572.55131c.17196,1.01634.24098,2.06715.20655,3.16989l.13786.1379c.44755-.17249.5172-.79247,1.03391-.82706,1.23996,3.6696-.4654,7.32195-.89603,10.88825.01607.62438.08102,1.22698.18852,1.81123l-1.58.00782c.06056-.39556.13803-.79425.22002-1.1989-.36194-.46538-.63768-1.0857-1.10276-1.37866-.17228.53426.37886.94788.34475,1.51623l-.68933-.34443c-.29278.69356.60019.94589.93957,1.41063l-13.40016-.00486h0Zm32.37744,0c.11399-.33872.24829-.67149.41197-.99232-.25836-3.94549-.56835-7.71802-.34441-11.78365.06901-.17245.30982-.17245.41294-.06918.18983.18966.24163.55131.55162.55131.34458-.96458.03442-2.1878.82702-2.96319.77522.20687,1.03374,1.11995,1.10259,1.86058v2.75648l.13771.1379c.48229-1.11999.77507-2.36029,1.86077-3.16993.25853-.17228.49965.13769.48229.41357-.15492,1.61916-.12082,3.34204-1.10261,4.6171.03459.29263,0,.60277.20672.82673,1.08523-1.34374,2.01586-3.37651,3.85924-3.92777.61983.98192-.20687,2.06715-.62032,2.96319-.77539.67178-.98194,1.56765-1.51618,2.34291l.13754.13786c1.24079-1.51618,2.89451-2.9116,4.75528-3.3768.36179.39636-.08622.77556-.13786,1.17175-.75801.56852-.65474,1.49851-1.24047,2.13604-.6203.79243-1.51602,1.22309-2.06732,1.92946.75818-.13773,1.41275-.96475,2.2052-1.24047,1.08521-.58556,2.18797-1.10244,3.51432-1.10244.29295.79243-.77505,1.2921-1.30914,1.7916-.56866.36194-1.01653.80998-1.37816,1.37833,1.22292-.18953,2.58403-1.0854,3.9276-.55147-.2067.87865-1.15391,1.27489-1.58471,2.06749.32737.27589.77522,0,1.17145,0,.58588.08622,1.22324.05163,1.65387.55131-.12048.72342-.97998.99867-1.42379,1.54088l-11.9923.00275c.34947-.29327.65766-.60928.73659-.99232.05149-.18953-.05197-.44804-.27574-.41345-.40156.43924-.99524.89684-1.20131,1.40594l-1.76042-.00017h0Zm2.82404-2.64641c-.08639.65491-.65474,1.27489-1.10276,1.86096h-.06901c.0518-.67195.63751-1.41275,1.17177-1.86096h0Zm-21.08699.6895c-.37917-.56869-1.01636-1.41292-.55097-2.1365.43032.55131.36162,1.42996.55097,2.1365h0Zm19.77751-2.27402c-.15492.56835-.56852,1.20571-.27572,1.79139.37915-.24096.34456-.8957.82685-1.03355-.0687.74063-.34441,1.55061-.82685,2.20518-.51671-1.05093-.48229-2.48089-.27557-3.65269.39636.01755.36162.46555.55128.68967h0Zm-19.01933-1.51623c.03442,1.0336.27557,2.06736-.20704,2.96306.15541-.98192-1.42964-2.36025.20704-2.96306h0Z"/><polygon class="d" points="352.74016 56.58262 358.57158 56.58262 358.57158 58.05284 352.74016 58.05284 352.74016 56.58262 352.74016 56.58262"/><polygon class="d" points="352.81066 55.52551 352.86861 54.06354 358.66738 54.29299 358.60957 55.75543 352.81066 55.52551 352.81066 55.52551"/><polygon class="d" points="352.97919 53.09638 353.09498 51.64256 358.86144 52.1016 358.74566 53.55545 352.97919 53.09638 352.97919 53.09638"/><polygon class="d" points="353.24584 50.66711 353.41943 49.22155 359.15373 49.91054 358.97997 51.35594 353.24584 50.66711 353.24584 50.66711"/><polygon class="d" points="353.61006 48.23832 353.84163 46.80053 359.54329 47.71915 359.31206 49.1566 353.61006 48.23832 353.61006 48.23832"/><polygon class="d" points="353.97446 45.80901 354.264 44.37986 359.9335 45.52776 359.64446 46.95691 353.97446 45.80901 353.97446 45.80901"/><polygon class="d" points="354.53469 43.42893 354.88218 42.00777 360.51988 43.38576 360.17253 44.80679 354.53469 43.42893 354.53469 43.42893"/><polygon class="d" points="355.59848 39.63564 361.20384 41.24308 360.79851 42.656 355.19349 41.04839 355.59848 39.63564 355.59848 39.63564"/><polygon class="d" points="460.8231 56.58262 454.99169 56.58262 454.99169 58.05284 460.8231 58.05284 460.8231 56.58262 460.8231 56.58262"/><polygon class="d" points="460.75261 55.52551 460.6948 54.06354 454.89572 54.29299 454.95369 55.75543 460.75261 55.52551 460.75261 55.52551"/><polygon class="d" points="460.5839 53.09638 460.46829 51.64256 454.70183 52.1016 454.81761 53.55545 460.5839 53.09638 460.5839 53.09638"/><polygon class="d" points="460.31774 50.66711 460.144 49.22155 454.4097 49.91054 454.58329 51.35594 460.31774 50.66711 460.31774 50.66711"/><polygon class="d" points="459.9532 48.23832 459.7218 46.80053 454.01981 47.71915 454.25121 49.1566 459.9532 48.23832 459.9532 48.23832"/><polygon class="d" points="459.58881 45.80901 459.2996 44.37986 453.6296 45.52776 453.91914 46.95691 459.58881 45.80901 459.58881 45.80901"/><polygon class="d" points="459.02841 43.42893 458.68123 42.00777 453.04355 43.38576 453.39074 44.80679 459.02841 43.42893 459.02841 43.42893"/><polygon class="d" points="457.96464 39.63564 452.35959 41.24308 452.76458 42.656 458.36978 41.04839 457.96464 39.63564 457.96464 39.63564"/><line class="f" x1="228.72229" y1=".56378" x2="228.72229" y2="167.01735"/><path id="c" class="d" d="m53.67382,160.03598c-1.47821-.57188-2.12921-1.0646-2.12921-2.05008,0-.73163.55694-1.60661,2.01872-1.60661.70611-.01354,1.40302.16171,2.01872.50766l.38075-1.14523c-.73106-.35763-1.53821-.53187-2.35169-.50766-1.69042-.21232-3.23289.98592-3.4452,2.67634-.00975.07765-.01655.15562-.02037.23378,0,1.49314,1.08103,2.41589,2.8295,3.02062,1.44685.54052,2.01872,1.12881,2.01872,2.13071,0,1.08103-.8272,1.81266-2.23971,1.81266-.86753-.00265-1.7184-.23833-2.46368-.68236l-.36582,1.14374c.83532.46618,1.77737.70748,2.73394.70028,2.52788,0,3.73284-1.44685,3.73284-3.08483,0-1.57526-.90484-2.43232-2.71751-3.14903m-1.75295-35.03199c-7.79418,0-12.61403,5.874-12.61403,13.25309,0,7.04164,4.3301,12.95297,12.20043,12.95297h.03733c7.79418,0,12.69167-5.19612,12.69167-13.36656,0-6.77885-4.14196-12.84098-12.3139-12.84098m-.07466,20.8233h-.07615c-3.27594,0-5.3096-3.16396-5.27227-7.71952,0-4.40624,1.99632-7.71952,5.27227-7.71952,3.31477,0,5.27227,3.31477,5.27227,7.68219,0,4.59289-1.92017,7.75685-5.19612,7.75685m-9.66657,15.9273c0,2.35318-1.03325,3.40286-2.60702,3.40286-1.43043,0-2.49503-1.01683-2.49503-3.40286v-6.36077h-1.3931v6.31447c0,3.33866,1.6529,4.57946,3.84632,4.57946,2.32034,0,4.05387-1.33635,4.05387-4.62872v-6.27117h-1.39907l-.00597,6.36674Zm19.69747-5.18268h3.25803v9.53966h1.39907v-9.53966h3.27445v-1.17809h-7.93305l.0015,1.17809Zm-34.13911-10.97009c-2.28708-.02715-4.53888-.56751-6.58922-1.58123l-1.28111,5.61122c2.34676,1.04136,4.8894,1.56782,7.45673,1.5439,7.41791,0,10.80584-3.73284,10.80584-8.09579,0-3.54023-2.03216-5.94866-6.58922-7.64338-3.20129-1.20496-4.55556-1.69471-4.55556-2.97433,0-1.13031,1.12881-1.88285,3.19979-1.88285,1.89784.0022,3.77295.41318,5.49773,1.20496l1.43043-5.4604c-2.17096-.89748-4.50496-1.33325-6.8535-1.27962-6.40108,0-10.2041,3.46259-10.2041,7.94498,0,3.76421,2.86234,6.09947,7.15362,7.64338,2.86234.9795,3.99116,1.65738,3.99116,2.89968,0,1.27962-1.13031,2.07098-3.46408,2.07098m-2.95193,9.79198l-3.64027,10.71774h1.43043l1.11239-3.37151h3.79854l1.14524,3.37151h1.47821l-3.6552-10.71774h-1.66933Zm-.81077,6.27117l1.0452-3.10125c.20605-.651.38075-1.31845.52409-1.94108h.04778c.15977.61965.31804,1.25573.54052,1.95601l1.06461,3.08483-3.22219.0015Zm84.5086-36.24143h-19.88113v5.7232h6.47723v19.65567h6.81618v-19.66164h6.59071l-.003-5.71723Zm-3.89261,29.97624h-1.39906v10.71774h5.97255v-1.16166h-4.57349v-9.55608Zm-23.91259-15.56c0,4.03147-1.31844,5.98749-4.03147,5.98749-2.67272,0-3.99116-2.14714-3.99116-5.98749v-14.41624h-6.80871v13.85632c0,8.13461,3.69104,11.93615,10.61919,11.93615,7.11778,0,11.03279-3.95383,11.03279-11.78682v-14.00564h-6.82065v14.41624Zm11.14926,15.55401l-3.64027,10.71774h1.43043l1.11239-3.37151h3.79854l1.14374,3.37151h1.4782l-3.6552-10.71774h-1.66783Zm-.81077,6.27117l1.0452-3.10125c.20605-.651.38075-1.31845.52409-1.94108h.04778c.15976.61965.31804,1.25573.54052,1.95601l1.06461,3.08483-3.2222.0015Zm35.13203-6.27117l-3.64027,10.71774h1.43043l1.11239-3.37151h3.79854l1.14374,3.37151h1.4782l-3.65967-10.71774h-1.66335Zm-.81077,6.27117l1.04519-3.10125c.20605-.651.38075-1.31845.52409-1.94108h.04778c.15977.61965.31803,1.25573.54052,1.95601l1.0661,3.08483-3.22367.0015Zm-44.94344-.651v-.05375c1.20117-.35873,2.02283-1.46541,2.01872-2.719.02426-.76778-.28245-1.50899-.84213-2.03515-.8874-.68211-2.00049-1.00228-3.11468-.89588-.89042-.00265-1.77916.07733-2.6548.23891v10.55797h1.38264v-4.64217h1.30351c1.25573.04628,1.84253.59726,2.16057,2.08143.1476.8746.38168,1.73239.69879,2.56073h1.43043c-.34719-.95765-.61829-1.9412-.81077-2.94148-.11199-.94568-.70826-1.76485-1.57377-2.16206m-1.79177-.58829h-1.4155v-3.89709c.44889-.09549.90742-.13809,1.36622-.12692,1.46327,0,2.46368.59726,2.46368,1.98737,0,1.22437-.93769,2.03515-2.4159,2.03515m36.41912,5.69184h1.39757v-10.71774h-1.39757v10.71774Zm-5.42308-40.68203v25.38334h6.81468v-10.02641h8.2466v10.01597h6.81468v-25.37289h-6.81768v9.40677h-8.2466v-9.40677h-6.81169Zm-22.15518-23.72148v-36.72222h-21.14581v5.21254h14.37294v28.90715l6.77287,2.60253Zm11.9869,4.60036v-50.18286h-39.10527v35.17235l2.32631.89588v-30.85419h28.43233v41.76754l8.34663,3.20128ZM71.09575,2.57566L0,47.00099l21.1488,65.08736,35.52324-22.20146h0v-37.41206h46.40074v55.22818l28.39649,10.89991,28.27406-60.63334L71.09575,2.57566Zm60.37502-2.57566l-15.1897,28.07099,41.54357,25.95223L131.47077,0Z"/></svg>